<?xml version="1.0"?>
<svg xmlns="http://www.w3.org/2000/svg" height="512px" viewBox="0 0 64 64" width="512px"><g><path d="m48 62a3 3 0 0 0 3-3v-54a3 3 0 0 0 -3-3h-32a3 3 0 0 0 -3 3v54a3 3 0 0 0 3 3zm-33-3v-54a1 1 0 0 1 1-1h32a1 1 0 0 1 1 1v54a1 1 0 0 1 -1 1h-32a1 1 0 0 1 -1-1z" data-original="#000000" class="active-path" data-old_color="#000000" fill="#EFCF24"/><path d="m47 53v-46a1 1 0 0 0 -1-1h-28a1 1 0 0 0 -1 1v46a1 1 0 0 0 1 1h28a1 1 0 0 0 1-1zm-28-45h9v6.279l-2.316.772a1 1 0 0 0 -.684.949v4a1 1 0 0 0 .293.707l2.42 2.42-1.49 2.236-3.93 3.93a1 1 0 0 0 -.263.464l-.855 3.418-2.175.544zm26 44h-26v-11.18l4.2-.84a.99.99 0 0 0 .4-.18l4-3a1 1 0 0 0 .4-.8v-3.465l2.1-1.4 3.905 1.674a6 6 0 0 0 -3.005 5.191c0 5.3 5.018 11.384 5.232 11.64a1 1 0 0 0 1.536 0c.214-.256 5.232-6.34 5.232-11.64a6.009 6.009 0 0 0 -3.644-5.517l1.977-1.483h3.667zm-8-18a4 4 0 0 1 4 4c0 3.429-2.652 7.505-4 9.357-1.35-1.85-4-5.921-4-9.357a4 4 0 0 1 4-4zm8-5h-4a1 1 0 0 0 -.6.2l-3.538 2.653-6.468-2.772a1 1 0 0 0 -.949.087l-3 2a1 1 0 0 0 -.445.832v3.5l-3.418 2.564-3.582.716v-3l3.243-.811a1 1 0 0 0 .727-.727l.933-3.732 3.8-3.8a1.011 1.011 0 0 0 .125-.152l2-3a1 1 0 0 0 -.125-1.262l-2.703-2.71v-2.865l2.316-.772a1 1 0 0 0 .684-.949v-7h2v8.764l-.895 1.789a1 1 0 0 0 .188 1.154l1.534 1.534-1.756 4.387a1 1 0 0 0 .557 1.3l5 2a1 1 0 0 0 .972-.128l3.733-2.8h3.667zm0-5h-4a1 1 0 0 0 -.6.2l-3.55 2.663-3.55-1.42 1.629-4.071a1 1 0 0 0 -.222-1.079l-1.49-1.49.678-1.356a1 1 0 0 0 .105-.447v-9h11z" data-original="#000000" class="active-path" data-old_color="#000000" fill="#EFCF24"/><path d="m35 57a3 3 0 1 0 -3 3 3 3 0 0 0 3-3zm-3 1a1 1 0 1 1 1-1 1 1 0 0 1 -1 1z" data-original="#000000" class="active-path" data-old_color="#000000" fill="#EFCF24"/><path d="m17 56h2v2h-2z" data-original="#000000" class="active-path" data-old_color="#000000" fill="#EFCF24"/><path d="m21 56h2v2h-2z" data-original="#000000" class="active-path" data-old_color="#000000" fill="#EFCF24"/><path d="m40 38a3 3 0 1 0 -3 3 3 3 0 0 0 3-3zm-4 0a1 1 0 1 1 1 1 1 1 0 0 1 -1-1z" data-original="#000000" class="active-path" data-old_color="#000000" fill="#EFCF24"/><path d="m41 16h2v-5a1 1 0 0 0 -1-1h-3v2h2z" data-original="#000000" class="active-path" data-old_color="#000000" fill="#EFCF24"/><path d="m23 44h-2v5a1 1 0 0 0 1 1h5v-2h-4z" data-original="#000000" class="active-path" data-old_color="#000000" fill="#EFCF24"/><path d="m41 18h2v2h-2z" data-original="#000000" class="active-path" data-old_color="#000000" fill="#EFCF24"/></g> </svg>
